<?xml version="1.0" encoding="utf-8"?>
<!-- Generator: Adobe Illustrator 23.0.0, SVG Export Plug-In . SVG Version: 6.00 Build 0)  -->
<svg version="1.1" id="Слой_1" xmlns="http://www.w3.org/2000/svg" xmlns:xlink="http://www.w3.org/1999/xlink" x="0px" y="0px"
	 viewBox="0 0 16 16" style="enable-background:new 0 0 16 16;" xml:space="preserve">
<style type="text/css">
	.st0{fill:#273049;}
</style>
<g>
	<path class="st0" d="M6.4,5.9c-1,0-1,1.5,0,1.5C7.4,7.4,7.4,5.9,6.4,5.9z"/>
	<path class="st0" d="M9.3,5.9c-1,0-1,1.5,0,1.5C10.2,7.4,10.2,5.9,9.3,5.9z"/>
	<path class="st0" d="M6.3,9.2C6.1,9.4,6.4,9.8,6.6,10c0.2,0.2,0.5,0.3,0.8,0.4c0.5,0.1,1,0.1,1.4-0.1C9.2,10,9.5,9.6,9.5,9.1
		c-0.4,0.5-1,0.7-1.6,0.7C7.2,9.8,6.8,9.5,6.3,9.2z"/>
	<path class="st0" d="M7.9,3.1C5.2,3.1,3,5.3,3,8c0,2.7,2.2,4.9,4.9,4.9s4.9-2.2,4.9-4.9C12.8,5.3,10.6,3.1,7.9,3.1z M7.9,12
		c-2.2,0-4-1.8-4-4c0-2.2,1.8-4,4-4s4,1.8,4,4C11.9,10.2,10.1,12,7.9,12z"/>
</g>
</svg>
