<?xml version="1.0" encoding="utf-8"?>
<!-- Generator: Adobe Illustrator 23.0.0, SVG Export Plug-In . SVG Version: 6.00 Build 0)  -->
<svg version="1.1" id="Слой_1" xmlns="http://www.w3.org/2000/svg" xmlns:xlink="http://www.w3.org/1999/xlink" x="0px" y="0px"
	 viewBox="0 0 40 40" style="enable-background:new 0 0 40 40;" xml:space="preserve">
<style type="text/css">
	.st0{fill:#273049;}
</style>
<g>
	<path class="st0" d="M27.9,4.5l-4.6-1.7c-1.6-0.2-2.9,0.7-3.4,2L15,17.9c-1.7-0.2-3.3-0.2-4.7,0c-0.6,0.1-0.6,1.1,0,1
		c2.1-0.3,4.9-0.1,7.4,0.6c-0.6,1-1.2,2-1.8,2.9c-0.4,0.5,0.1,0.8,0.5,0.3c0.6-0.9,1.2-1.9,1.8-3c1,0.3,1.9,0.7,2.8,1.3
		C21,22,20.9,23,21,24c0,0.6,0.5,0.6,0.5,0c0-0.9,0-1.8,0.1-2.8c1.7,1.2,2.9,2.8,3,5.1c0,0.6,1,0.6,1,0c-0.1-1.6-0.7-2.9-1.5-4
		l5.1-14.1C29.7,6.9,29.2,5.4,27.9,4.5z M18.8,18.7c1.1-2,2-4.2,2.6-6.2c0.4,0.1,0.7,0.2,1.1,0.3c-0.7,2.1-1.1,4.5-1.3,6.9
		C20.4,19.4,19.6,19,18.8,18.7z M27.9,7.7L23,21.1c-0.4-0.4-0.9-0.7-1.3-1c0.2-2.5,0.6-5,1.3-7.1c0.4,0.1,0.8,0.3,1.2,0.4
		c0.6,0.2,0.9-0.8,0.3-1c-0.4-0.1-0.8-0.2-1.2-0.4c0.3-0.7,0.6-1.3,0.9-1.9c0.3-0.4,0-1-0.2-0.6c-0.4,0.7-0.8,1.4-1.1,2.3
		c-0.4-0.1-0.8-0.2-1.1-0.4c0.3-1,0.4-2,0.4-2.8c0-0.5-0.4-0.1-0.4,0.4c0,0.7-0.1,1.5-0.4,2.4c-0.3-0.1-0.7-0.2-1-0.3
		c-0.6-0.2-0.9,0.8-0.3,1c0.3,0.1,0.7,0.2,1,0.3c-0.6,2-1.7,4.1-2.8,6.2c-0.6-0.2-1.2-0.4-1.8-0.5l4.7-12.9c0.2-0.4,0.5-0.7,0.9-0.9
		c0.4-0.2,0.8-0.2,1.3-0.1l3.6,1.3c0.4,0.2,0.7,0.5,0.9,0.9C28,6.9,28,7.3,27.9,7.7z"/>
	<path class="st0" d="M24.7,27.8c0.1,0.8,0,1.6-0.3,2.3c-0.2,0.6,0.7,0.9,1,0.3c0.3-0.8,0.4-1.7,0.3-2.6
		C25.7,27.1,24.7,27.1,24.7,27.8z"/>
	<path class="st0" d="M23.9,31.7c-0.2,0.7-0.7,1.4-1.2,1.9c-0.5,0.5,0.2,1.2,0.7,0.7c0.7-0.7,1.2-1.4,1.5-2.3
		C25.1,31.4,24.1,31.1,23.9,31.7z"/>
	<path class="st0" d="M21.5,34.3c-0.6,0-0.6,1,0,1C22.1,35.3,22.1,34.3,21.5,34.3z"/>
</g>
</svg>
