<?xml version="1.0" encoding="utf-8"?>
<!-- Generator: Adobe Illustrator 23.0.0, SVG Export Plug-In . SVG Version: 6.00 Build 0)  -->
<svg version="1.1" id="Слой_1" xmlns="http://www.w3.org/2000/svg" xmlns:xlink="http://www.w3.org/1999/xlink" x="0px" y="0px"
	 viewBox="0 0 40 40" style="enable-background:new 0 0 40 40;" xml:space="preserve">
<style type="text/css">
	.st0{fill:#273049;}
</style>
<g>
	<path class="st0" d="M21.5,4.7V2.1C21.5,1.5,21,1,20.4,1h-0.3C19.5,1,19,1.5,19,2.1v2.6C10.8,5.3,4.3,12.2,4.3,20.5
		c0,8.8,7.1,15.9,15.9,15.9c8.8,0,15.9-7.1,15.9-15.9C36.2,12.2,29.7,5.3,21.5,4.7z M20.2,33.5c-7.1,0-12.9-5.8-12.9-12.9
		c0-6.7,5.1-12.2,11.7-12.9v7.8h-5.8c-0.5,0-0.9,0.4-0.9,0.9s0.4,0.9,0.9,0.9h14.1c0.5,0,0.9-0.4,0.9-0.9s-0.4-0.9-0.9-0.9h-5.8V7.7
		c6.5,0.6,11.7,6.2,11.7,12.9C33.2,27.7,27.4,33.5,20.2,33.5z"/>
	<path class="st0" d="M26,18.6H14.5c-0.5,0-0.9,0.4-0.9,0.9v0.2c0,0.5,0.4,0.9,0.9,0.9H26c0.5,0,0.9-0.4,0.9-0.9v-0.2
		C26.9,19,26.5,18.6,26,18.6z"/>
	<path class="st0" d="M24.4,21.7h-8.3c-0.4,0-0.7,0.3-0.7,0.7v0.4c0,0.4,0.3,0.7,0.7,0.7h8.3c0.4,0,0.7-0.3,0.7-0.7v-0.4
		C25.1,22.1,24.8,21.7,24.4,21.7z"/>
</g>
</svg>
