<?xml version="1.0" encoding="utf-8"?>
<!-- Generator: Adobe Illustrator 23.0.0, SVG Export Plug-In . SVG Version: 6.00 Build 0)  -->
<svg version="1.1" id="Слой_1" xmlns="http://www.w3.org/2000/svg" xmlns:xlink="http://www.w3.org/1999/xlink" x="0px" y="0px"
	 viewBox="0 0 16 16" style="enable-background:new 0 0 16 16;" xml:space="preserve">
<style type="text/css">
	.st0{fill:none;stroke:#273049;stroke-width:0.5;stroke-miterlimit:10;}
	.st1{fill:none;stroke:#273049;stroke-miterlimit:10;}
	.st2{fill:#273049;}
</style>
<g>
	<path class="st0" d="M6,3.3"/>
</g>
<circle class="st1" cx="8.3" cy="7.8" r="4.6"/>
<circle class="st2" cx="8.3" cy="7.8" r="0.6"/>
<path class="st2" d="M8.4,7.5H8.3c-0.1,0-0.2-0.1-0.2-0.2V4.1c0-0.1,0.1-0.2,0.2-0.2h0.1c0.1,0,0.2,0.1,0.2,0.2v3.3
	C8.6,7.5,8.5,7.5,8.4,7.5z"/>
<path class="st2" d="M8.3,7.8V7.7c0-0.1,0.1-0.2,0.2-0.2h3.3c0.1,0,0.2,0.1,0.2,0.2v0.1c0,0.1-0.1,0.2-0.2,0.2H8.4
	C8.3,8,8.3,7.9,8.3,7.8z"/>
</svg>
