<?xml version="1.0" encoding="utf-8"?>
<!-- Generator: Adobe Illustrator 23.0.0, SVG Export Plug-In . SVG Version: 6.00 Build 0)  -->
<svg version="1.1" id="Слой_1" xmlns="http://www.w3.org/2000/svg" xmlns:xlink="http://www.w3.org/1999/xlink" x="0px" y="0px"
	 viewBox="0 0 16 16" style="enable-background:new 0 0 16 16;" xml:space="preserve">
<style type="text/css">
	.st0{fill:none;stroke:#273049;stroke-width:0.5;stroke-miterlimit:10;}
	.st1{fill:#273049;}
</style>
<g>
	<path class="st0" d="M6,3.3"/>
</g>
<g>
	<path class="st1" d="M7.8,9.8C7.7,9.7,7.6,9.5,7.6,9.4c0-0.5,0.2-1,0.6-1.5c0.3-0.4,0.7-0.8,0.9-1.3c0.2-0.5,0.2-1.2-0.3-1.5
		c-0.3-0.2-0.6-0.3-1-0.2c-0.3,0.1-0.7,0.2-1,0.4c0,0-0.3-0.6-0.3-0.7c0-0.2,0.4-0.3,0.5-0.3C7.7,4,8.3,3.9,8.8,4
		c0.7,0.1,1.4,0.7,1.5,1.5C10.4,6,10.2,6.6,9.9,7S9.2,7.9,9,8.4c-0.3,0.5-0.5,1-0.3,1.5C8.4,10,8.1,10,7.8,9.8
		C7.8,9.9,7.8,9.8,7.8,9.8z M7.4,11.6c0-0.4,0.3-0.8,0.7-0.8s0.7,0.3,0.7,0.8c0,0.4-0.3,0.7-0.7,0.7C7.7,12.3,7.4,12,7.4,11.6z"/>
</g>
</svg>
