<?xml version="1.0" encoding="utf-8"?>
<!-- Generator: Adobe Illustrator 23.0.0, SVG Export Plug-In . SVG Version: 6.00 Build 0)  -->
<svg version="1.1" id="Слой_1" xmlns="http://www.w3.org/2000/svg" xmlns:xlink="http://www.w3.org/1999/xlink" x="0px" y="0px"
	 viewBox="0 0 16 16" style="enable-background:new 0 0 16 16;" xml:space="preserve">
<style type="text/css">
	.st0{fill:#273049;stroke:#273049;stroke-width:0.25;stroke-miterlimit:10;}
	.st1{fill:none;stroke:#273049;stroke-width:0.5;stroke-miterlimit:10;}
	.st2{fill:#273049;}
</style>
<g>
	<path class="st0" d="M11,9.7C11,9.7,11,9.7,11,9.7L6.3,9.7c-0.3,0-0.5-0.2-0.5-0.4L4.5,4.9c0,0,0-0.1-0.1-0.1L2.8,4.5L2.9,4
		l1.7,0.3c0.2,0,0.4,0.2,0.5,0.4l1.3,4.4c0,0,0,0.1,0.1,0.1L11,9.2c0,0,0,0,0,0c0,0,0.1,0,0.1-0.1l1.1-3.4c0,0,0-0.1,0-0.1
		c0,0,0,0-0.1,0H6.8V5.2h5.3c0.2,0,0.4,0.1,0.5,0.2c0.1,0.1,0.1,0.3,0.1,0.5l-1.1,3.4C11.5,9.6,11.3,9.7,11,9.7z"/>
</g>
<g>
	<rect x="7.1" y="6.6" class="st0" width="4.8" height="0.6"/>
</g>
<g>
	<rect x="7.4" y="7.7" class="st0" width="4.3" height="0.6"/>
</g>
<g>
	<path class="st1" d="M6,3.3"/>
</g>
<path class="st2" d="M7.4,10c-0.4,0-0.8,0.4-0.8,0.8s0.4,0.8,0.8,0.8c0.4,0,0.8-0.4,0.8-0.8S7.8,10,7.4,10z M7.4,11.1
	c-0.2,0-0.3-0.1-0.3-0.3s0.1-0.3,0.3-0.3s0.3,0.1,0.3,0.3S7.6,11.1,7.4,11.1z"/>
<path class="st2" d="M10.3,10c-0.4,0-0.8,0.4-0.8,0.8s0.4,0.8,0.8,0.8s0.8-0.4,0.8-0.8S10.7,10,10.3,10z M10.3,11.1
	c-0.2,0-0.3-0.1-0.3-0.3s0.1-0.3,0.3-0.3s0.3,0.1,0.3,0.3S10.5,11.1,10.3,11.1z"/>
</svg>
