<?xml version="1.0" encoding="utf-8"?>
<!-- Generator: Adobe Illustrator 23.0.0, SVG Export Plug-In . SVG Version: 6.00 Build 0)  -->
<svg version="1.1" id="Слой_1" xmlns="http://www.w3.org/2000/svg" xmlns:xlink="http://www.w3.org/1999/xlink" x="0px" y="0px"
	 viewBox="0 0 16 16" style="enable-background:new 0 0 16 16;" xml:space="preserve">
<style type="text/css">
	.st0{fill:#273049;}
</style>
<g>
	<path class="st0" d="M7.9,3.1C5.2,3.1,3,5.3,3,8c0,2.7,2.2,4.9,4.9,4.9s4.9-2.2,4.9-4.9C12.8,5.3,10.6,3.1,7.9,3.1z M7.9,12
		c-2.2,0-4-1.8-4-4c0-2.2,1.8-4,4-4s4,1.8,4,4C11.9,10.2,10.1,12,7.9,12z"/>
</g>
<polygon class="st0" points="10.6,7.4 8.7,7.1 7.9,5.4 7,7.1 5.2,7.4 6.5,8.7 6.2,10.5 7.9,9.7 9.5,10.5 9.2,8.7 "/>
</svg>
