<?xml version="1.0" encoding="utf-8"?>
<!-- Generator: Adobe Illustrator 23.0.0, SVG Export Plug-In . SVG Version: 6.00 Build 0)  -->
<svg version="1.1" id="Слой_1" xmlns="http://www.w3.org/2000/svg" xmlns:xlink="http://www.w3.org/1999/xlink" x="0px" y="0px"
	 viewBox="0 0 16 16" style="enable-background:new 0 0 16 16;" xml:space="preserve">
<style type="text/css">
	.st0{fill:#025760;}
</style>
<path class="st0" d="M13.4,11.5l-3.3-2.9c0.2-0.5,0.4-1,0.4-1.6c0-2-1.6-3.7-3.7-3.7S3.1,5,3.1,7s1.6,3.7,3.7,3.7
	c0.9,0,1.7-0.3,2.3-0.8l3.3,2.8c0.3,0.2,0.7,0.2,0.9-0.1l0.2-0.2C13.7,12.1,13.7,11.7,13.4,11.5z M6.8,9.6C5.3,9.6,4.1,8.4,4.1,7
	c0-1.5,1.2-2.6,2.6-2.6c1.5,0,2.6,1.2,2.6,2.6C9.4,8.4,8.2,9.6,6.8,9.6z"/>
</svg>
