<?xml version="1.0" encoding="utf-8"?>
<!-- Generator: Adobe Illustrator 23.0.0, SVG Export Plug-In . SVG Version: 6.00 Build 0)  -->
<svg version="1.1" id="Слой_1" xmlns="http://www.w3.org/2000/svg" xmlns:xlink="http://www.w3.org/1999/xlink" x="0px" y="0px"
	 viewBox="0 0 72.7 156.2" style="enable-background:new 0 0 72.7 156.2;" xml:space="preserve">
<style type="text/css">
	.st0{fill:#CECECE;}
	.st1{fill:#383838;stroke:#404040;stroke-miterlimit:10;}
	.st2{fill:none;stroke:#404040;stroke-miterlimit:10;}
	.st3{fill:#FFFFFF;}
</style>
<g>
	<path class="st0" d="M75.5,69.8"/>
</g>
<path class="st1" d="M57.1,10.9H43.4V9.1c0-2.6-2.1-4.6-4.6-4.6h-4.6c-2.6,0-4.6,2.1-4.6,4.6v1.8h-14c-3.9,0-7.1,3.2-7.1,7.1v101.2
	c0,4.5,3.7,8.2,8.2,8.2H17v25.1c0,1.6,1.3,2.9,2.9,2.9s2.9-1.3,2.9-2.9v-25.1h5v18.1c0,1.6,1.3,2.9,2.9,2.9c1.6,0,2.9-1.3,2.9-2.9
	v-18.1h6.7v18.1c0,1.6,1.3,2.9,2.9,2.9s2.9-1.3,2.9-2.9v-18.1h5v25.1c0,1.6,1.3,2.9,2.9,2.9s2.9-1.3,2.9-2.9v-25.1
	c4.2-0.4,7.4-3.9,7.4-8.1V17.9C64.2,14,61,10.9,57.1,10.9z M37,68.5c0.1,0.3,0.4,0.5,0.8,0.5l11.1-0.1L17.2,95.6l13.7-23.1
	c0.2-0.3,0.2-0.6,0-0.8c-0.1-0.3-0.4-0.4-0.7-0.4h-7.8l12.4-23l17,0.7L37.1,67.6C36.9,67.9,36.9,68.2,37,68.5z M63.2,119.1
	c0,3.9-3.1,7-7,7.2l-0.5,0v26.1c0,1-0.8,1.9-1.9,1.9s-1.9-0.8-1.9-1.9v-26.1h-7v19.1c0,1-0.8,1.9-1.9,1.9s-1.9-0.8-1.9-1.9v-19.1
	h-4.9V80.7l13.5-11.4c0.3-0.2,0.4-0.6,0.2-0.9c-0.1-0.3-0.4-0.5-0.8-0.5c0,0,0,0,0,0l-11.2,0.1l14.6-18.6c0.2-0.2,0.2-0.6,0.1-0.9
	s-0.4-0.5-0.7-0.5l-15.8-0.7V5.4h2.5c2,0,3.6,1.6,3.6,3.6v2.8h14.7c3.3,0,6.1,2.7,6.1,6.1V119.1z"/>
<g>
	<path class="st2" d="M34.7,47.7"/>
</g>
<rect x="59.2" y="21.7" class="st3" width="8.9" height="15.5"/>
<rect x="59.2" y="48.2" class="st3" width="8.9" height="15.5"/>
<rect x="59.8" y="75.5" class="st3" width="8.9" height="15.5"/>
<rect x="59.8" y="101.2" class="st3" width="8.9" height="15.5"/>
</svg>
